<svg width="5696" height="5418" viewBox="0 0 5696 5418" fill="none" xmlns="http://www.w3.org/2000/svg">
<path d="M1702.81 5044.44L5433.16 2424.73L5695.13 2797.77L1964.78 5417.47L1702.81 5044.44ZM1027.96 3290.32L1401 3028.35L2317.89 4333.98L1944.86 4595.95L1027.96 3290.32ZM1960.55 2635.4L2333.59 2373.43L3250.48 3679.05L2877.45 3941.02L1960.55 2635.4ZM2706.62 2111.46L3079.66 1849.49L3996.55 3155.11L3623.52 3417.08L2706.62 2111.46ZM3639.21 1456.53L4012.25 1194.56L4929.14 2500.18L4556.11 2762.15L3639.21 1456.53ZM0.000380181 2619.71L1210.25 377.264L3730.36 0.000358378L4254.3 746.071L523.941 3365.78L0.000380181 2619.71ZM534.934 2588.27L635.006 2730.77L3619.29 635.006L3519.22 492.507L1503.13 794.318L534.934 2588.27ZM1996.16 1496.37C1946.7 1531.11 1885.45 1544.78 1825.91 1534.36C1766.37 1523.95 1713.4 1490.31 1678.66 1440.84C1643.92 1391.37 1630.26 1330.13 1640.67 1270.59C1651.08 1211.04 1684.73 1158.07 1734.19 1123.33C1783.66 1088.6 1844.9 1074.93 1904.45 1085.34C1963.99 1095.76 2016.96 1129.4 2051.7 1178.87C2086.44 1228.34 2100.1 1289.58 2089.69 1349.12C2079.27 1408.66 2045.63 1461.63 1996.16 1496.37Z" fill="#FF8C00"/>
</svg>
