<svg width="1177" height="1177" viewBox="0 0 1177 1177" fill="none" xmlns="http://www.w3.org/2000/svg">
<circle cx="588.5" cy="588.5" r="588.5" fill="#EF2C5A"/>
<path d="M353.389 382.2H441.556V352.8C441.556 337.205 447.748 322.249 458.771 311.222C469.794 300.195 484.744 294 500.333 294H676.667C692.256 294 707.206 300.195 718.229 311.222C729.252 322.249 735.444 337.205 735.444 352.8V382.2H823.611C831.406 382.2 838.881 385.297 844.392 390.811C849.904 396.325 853 403.803 853 411.6C853 419.397 849.904 426.875 844.392 432.389C838.881 437.903 831.406 441 823.611 441H794.222V823.2C794.222 838.795 788.03 853.751 777.007 864.778C765.984 875.805 751.033 882 735.444 882H441.556C425.967 882 411.016 875.805 399.993 864.778C388.97 853.751 382.778 838.795 382.778 823.2V441H353.389C345.594 441 338.119 437.903 332.608 432.389C327.096 426.875 324 419.397 324 411.6C324 403.803 327.096 396.325 332.608 390.811C338.119 385.297 345.594 382.2 353.389 382.2ZM441.556 441V823.2H735.444V441H441.556ZM500.333 382.2H676.667V352.8H500.333V382.2ZM500.333 499.8H559.111V764.4H500.333V499.8ZM617.889 499.8H676.667V764.4H617.889V499.8Z" fill="white"/>
</svg>
